<svg width="22" height="20" viewBox="0 0 22 20" fill="none" xmlns="http://www.w3.org/2000/svg">
<path d="M8.97604 1.69189C4.02665 1.69189 0 5.71855 0 10.6679C0 12.8357 0.772538 14.8262 2.05671 16.3791C2.06 16.3836 2.0603 16.3893 2.06389 16.3935C2.99112 17.5116 4.15561 18.3688 5.45324 18.9226C5.4682 18.9289 5.48287 18.9358 5.49783 18.9421C5.60285 18.9863 5.70906 19.0273 5.81558 19.0674C5.85747 19.0833 5.89935 19.0994 5.94184 19.1147C6.0337 19.1476 6.12615 19.1787 6.2192 19.2086C6.27874 19.2278 6.33828 19.2466 6.39842 19.2646C6.4807 19.2891 6.56328 19.3128 6.64646 19.3352C6.71947 19.3549 6.79307 19.3732 6.86667 19.3909C6.94117 19.4088 7.01597 19.4268 7.09107 19.4426C7.17485 19.4606 7.25952 19.4764 7.3445 19.492C7.41271 19.5046 7.48063 19.5177 7.54945 19.5288C7.6437 19.544 7.73854 19.556 7.83369 19.5683C7.89503 19.5761 7.95606 19.585 8.0177 19.5916C8.12541 19.603 8.23402 19.6111 8.34293 19.6185C8.3935 19.6221 8.44376 19.6275 8.49463 19.6302C8.6535 19.6392 8.81417 19.644 8.97604 19.644C9.13791 19.644 9.29858 19.6392 9.45806 19.6308C9.50892 19.6281 9.55919 19.6227 9.60975 19.6191C9.71866 19.6114 9.82727 19.6036 9.93498 19.5922C9.99662 19.5856 10.0577 19.5767 10.119 19.5689C10.2141 19.5566 10.309 19.5446 10.4032 19.5294C10.4717 19.5183 10.54 19.5051 10.6082 19.4926C10.6929 19.477 10.7775 19.4612 10.8616 19.4432C10.9367 19.4271 11.0112 19.4094 11.086 19.3915C11.1596 19.3735 11.2332 19.3552 11.3062 19.3358C11.3894 19.3137 11.472 19.2897 11.5543 19.2652C11.6144 19.2472 11.6739 19.2284 11.7335 19.2092C11.8265 19.1793 11.919 19.1482 12.0108 19.1153C12.053 19.1 12.0949 19.0839 12.1371 19.068C12.2439 19.0279 12.3498 18.9866 12.4549 18.9426C12.4698 18.9364 12.4845 18.9295 12.4994 18.9232C13.7968 18.3694 14.9616 17.5122 15.8888 16.3941C15.8924 16.3899 15.8927 16.3839 15.896 16.3797C17.1795 14.8262 17.9521 12.8357 17.9521 10.6679C17.9521 5.71855 13.9254 1.69189 8.97604 1.69189ZM12.6134 18.2138C12.6089 18.2159 12.6048 18.2183 12.6003 18.2204C12.4935 18.2718 12.3848 18.3203 12.2753 18.3676C12.2505 18.3781 12.226 18.3888 12.2011 18.3993C12.1054 18.4394 12.0084 18.4774 11.9109 18.5139C11.8702 18.5292 11.8295 18.5441 11.7885 18.5585C11.7021 18.5893 11.6153 18.6189 11.5276 18.647C11.4732 18.6644 11.4184 18.6808 11.3637 18.697C11.2859 18.7203 11.2078 18.7428 11.1288 18.7637C11.0624 18.7814 10.9954 18.7975 10.9283 18.8134C10.858 18.8302 10.788 18.8472 10.7171 18.8622C10.6396 18.8786 10.5615 18.8927 10.4837 18.9067C10.4206 18.9184 10.3578 18.9307 10.294 18.9409C10.2064 18.9546 10.1178 18.9657 10.0295 18.9768C9.97358 18.9839 9.91793 18.9923 9.86138 18.9983C9.76055 19.0091 9.65882 19.016 9.55739 19.0231C9.51221 19.0261 9.46733 19.0312 9.42155 19.0336C9.27345 19.0414 9.12504 19.0456 8.97604 19.0456C8.82704 19.0456 8.67864 19.0414 8.53083 19.0336C8.48535 19.0312 8.44047 19.0264 8.39499 19.0231C8.29326 19.0163 8.19184 19.0091 8.091 18.9983C8.03446 18.9923 7.9788 18.9839 7.92285 18.9768C7.83459 18.9657 7.74603 18.9546 7.65836 18.9409C7.59463 18.9307 7.5318 18.9184 7.46867 18.9067C7.39057 18.8927 7.31248 18.8783 7.23529 18.8622C7.16438 18.8472 7.09407 18.8302 7.02405 18.8134C6.95703 18.7972 6.89001 18.7814 6.82359 18.7637C6.7449 18.7428 6.66651 18.72 6.58871 18.697C6.53396 18.6808 6.47921 18.6644 6.42475 18.647C6.33709 18.6189 6.25002 18.5893 6.16385 18.5585C6.12286 18.5438 6.08217 18.5289 6.04147 18.5139C5.94393 18.4774 5.84699 18.4394 5.75125 18.3993C5.72642 18.3891 5.70218 18.3784 5.67735 18.3679C5.56784 18.3209 5.45923 18.2721 5.35211 18.2207C5.34763 18.2186 5.34344 18.2165 5.33895 18.2141C4.29504 17.709 3.3729 16.9922 2.62459 16.1215C3.20295 13.9918 4.84018 12.2749 6.94656 11.5919C6.98815 11.6173 7.03153 11.64 7.07432 11.664C7.09945 11.678 7.12428 11.693 7.14972 11.7065C7.23888 11.7537 7.32924 11.798 7.42169 11.8378C7.4926 11.8689 7.56591 11.8953 7.63891 11.9222C7.65327 11.9273 7.66763 11.933 7.682 11.938C8.08771 12.0817 8.52185 12.1639 8.97604 12.1639C9.43023 12.1639 9.86437 12.0817 10.2698 11.938C10.2842 11.933 10.2985 11.9273 10.3129 11.9222C10.3859 11.8953 10.4592 11.8689 10.5301 11.8378C10.6225 11.798 10.7129 11.7537 10.8021 11.7065C10.8275 11.6927 10.8523 11.678 10.8775 11.664C10.9203 11.64 10.9639 11.6173 11.0058 11.5916C13.1122 12.2749 14.7491 13.9918 15.3278 16.1212C14.5795 16.9916 13.6573 17.7084 12.6134 18.2138ZM5.68483 8.27433C5.68483 6.45967 7.16139 4.98311 8.97604 4.98311C10.7907 4.98311 12.2673 6.45967 12.2673 8.27433C12.2673 9.42864 11.6686 10.4444 10.7665 11.0321C10.6486 11.1087 10.5259 11.1772 10.3999 11.237C10.385 11.2442 10.3703 11.2517 10.3554 11.2586C9.48887 11.6526 8.46321 11.6526 7.59672 11.2586C7.58176 11.2517 7.5668 11.2442 7.55214 11.237C7.42588 11.1772 7.30351 11.1087 7.18562 11.0321C6.28353 10.4444 5.68483 9.42864 5.68483 8.27433ZM15.7766 15.5518C15.0983 13.5489 13.5508 11.9303 11.5737 11.1613C12.3645 10.4489 12.8657 9.42027 12.8657 8.27433C12.8657 6.12965 11.1207 4.38471 8.97604 4.38471C6.83137 4.38471 5.08642 6.12965 5.08642 8.27433C5.08642 9.42027 5.58759 10.4489 6.37867 11.1613C4.40155 11.9306 2.85408 13.5489 2.17579 15.5518C1.18454 14.1758 0.598403 12.4895 0.598403 10.6679C0.598403 6.04857 4.35667 2.2903 8.97604 2.2903C13.5954 2.2903 17.3537 6.04857 17.3537 10.6679C17.3537 12.4895 16.7675 14.1758 15.7766 15.5518Z" fill="white"/>
<circle cx="16.5" cy="5.50002" r="4.50002" fill="#C5C5C5" stroke="white" stroke-width="2"/>
</svg>
