<svg width="23" height="21" viewBox="0 0 23 21" fill="none" xmlns="http://www.w3.org/2000/svg">
<path d="M9.18748 1.73193C4.1215 1.73193 0 5.85344 0 10.9194C0 13.1382 0.790736 15.1757 2.10516 16.7651C2.10853 16.7697 2.10883 16.7755 2.11251 16.7798C3.06157 17.9243 4.2535 18.8017 5.5817 19.3685C5.59701 19.375 5.61202 19.382 5.62733 19.3884C5.73482 19.4338 5.84354 19.4757 5.95257 19.5167C5.99544 19.533 6.03832 19.5495 6.0818 19.5651C6.17582 19.5988 6.27045 19.6307 6.3657 19.6613C6.42664 19.6809 6.48758 19.7002 6.54914 19.7186C6.63336 19.7437 6.71788 19.7679 6.80302 19.7908C6.87775 19.8111 6.95308 19.8297 7.02842 19.8478C7.10468 19.8662 7.18124 19.8846 7.25811 19.9008C7.34386 19.9192 7.43053 19.9354 7.5175 19.9513C7.58733 19.9642 7.65684 19.9777 7.72728 19.989C7.82375 20.0046 7.92083 20.0169 8.01822 20.0294C8.081 20.0374 8.14347 20.0466 8.20656 20.0533C8.31681 20.0649 8.42798 20.0732 8.53945 20.0809C8.59121 20.0845 8.64266 20.09 8.69472 20.0928C8.85734 20.102 9.0218 20.1069 9.18748 20.1069C9.35316 20.1069 9.51761 20.102 9.68085 20.0934C9.73291 20.0907 9.78436 20.0851 9.83611 20.0815C9.94759 20.0735 10.0588 20.0655 10.169 20.0539C10.2321 20.0472 10.2946 20.038 10.3573 20.03C10.4547 20.0175 10.5518 20.0052 10.6483 19.9896C10.7184 19.9783 10.7882 19.9648 10.8581 19.9519C10.9447 19.936 11.0314 19.9198 11.1175 19.9014C11.1943 19.8849 11.2706 19.8668 11.3471 19.8484C11.4225 19.83 11.4978 19.8114 11.5725 19.7915C11.6577 19.7688 11.7422 19.7443 11.8264 19.7192C11.888 19.7008 11.9489 19.6815 12.0099 19.6619C12.1051 19.6313 12.1997 19.5994 12.2938 19.5657C12.3369 19.5501 12.3798 19.5336 12.423 19.5174C12.5323 19.4763 12.6407 19.4341 12.7482 19.389C12.7636 19.3826 12.7786 19.3756 12.7939 19.3691C14.1218 18.8023 15.314 17.9249 16.2631 16.7804C16.2667 16.7761 16.267 16.77 16.2704 16.7657C17.5842 15.1757 18.375 13.1382 18.375 10.9194C18.375 5.85344 14.2535 1.73193 9.18748 1.73193ZM12.9106 18.643C12.906 18.6452 12.9017 18.6476 12.8971 18.6498C12.7877 18.7024 12.6766 18.752 12.5645 18.8004C12.5391 18.8111 12.514 18.8222 12.4885 18.8329C12.3905 18.8739 12.2913 18.9128 12.1915 18.9502C12.1498 18.9658 12.1082 18.9811 12.0662 18.9958C11.9777 19.0274 11.8889 19.0577 11.7992 19.0865C11.7434 19.1042 11.6874 19.1211 11.6313 19.1376C11.5517 19.1615 11.4718 19.1845 11.3909 19.2059C11.323 19.224 11.2544 19.2405 11.1858 19.2567C11.1138 19.2739 11.0421 19.2913 10.9695 19.3067C10.8902 19.3235 10.8103 19.3379 10.7307 19.3523C10.666 19.3642 10.6017 19.3768 10.5365 19.3872C10.4468 19.4013 10.3561 19.4126 10.2658 19.424C10.2085 19.4313 10.1516 19.4399 10.0937 19.446C9.99046 19.457 9.88634 19.4641 9.78252 19.4714C9.73628 19.4745 9.69034 19.4797 9.64348 19.4821C9.49189 19.4901 9.33999 19.4944 9.18748 19.4944C9.03497 19.4944 8.88307 19.4901 8.73178 19.4821C8.68523 19.4797 8.63929 19.4748 8.59274 19.4714C8.48862 19.4644 8.3848 19.457 8.28159 19.446C8.22371 19.4399 8.16675 19.4313 8.10948 19.424C8.01914 19.4126 7.92849 19.4013 7.83876 19.3872C7.77353 19.3768 7.70921 19.3642 7.64459 19.3523C7.56466 19.3379 7.48473 19.3232 7.40572 19.3067C7.33314 19.2913 7.26117 19.2739 7.18951 19.2567C7.12091 19.2402 7.05231 19.224 6.98432 19.2059C6.90378 19.1845 6.82354 19.1612 6.74391 19.1376C6.68787 19.1211 6.63183 19.1042 6.57609 19.0865C6.48636 19.0577 6.39724 19.0274 6.30904 18.9958C6.26708 18.9808 6.22543 18.9655 6.18378 18.9502C6.08395 18.9128 5.98472 18.8739 5.88672 18.8329C5.8613 18.8225 5.8365 18.8115 5.81108 18.8007C5.69899 18.7527 5.58782 18.7027 5.47819 18.6501C5.47359 18.6479 5.46931 18.6458 5.46471 18.6433C4.39621 18.1264 3.45235 17.3926 2.68642 16.5014C3.2784 14.3215 4.95419 12.5643 7.11019 11.8651C7.15276 11.8911 7.19716 11.9144 7.24096 11.9389C7.26668 11.9533 7.2921 11.9686 7.31813 11.9824C7.40939 12.0308 7.50188 12.0761 7.59651 12.1168C7.66909 12.1487 7.74413 12.1756 7.81885 12.2032C7.83355 12.2084 7.84825 12.2142 7.86295 12.2194C8.27822 12.3664 8.72259 12.4507 9.18748 12.4507C9.65236 12.4507 10.0967 12.3664 10.5117 12.2194C10.5264 12.2142 10.5411 12.2084 10.5558 12.2032C10.6305 12.1756 10.7056 12.1487 10.7781 12.1168C10.8728 12.0761 10.9653 12.0308 11.0565 11.9824C11.0825 11.9683 11.108 11.9533 11.1337 11.9389C11.1775 11.9144 11.2222 11.8911 11.2651 11.8648C13.4211 12.5643 15.0966 14.3215 15.6888 16.5011C14.9229 17.392 13.9791 18.1258 12.9106 18.643ZM5.81874 8.46942C5.81874 6.61202 7.33008 5.10068 9.18748 5.10068C11.0449 5.10068 12.5562 6.61202 12.5562 8.46942C12.5562 9.65093 11.9434 10.6906 11.0201 11.2921C10.8994 11.3705 10.7738 11.4406 10.6449 11.5019C10.6296 11.5092 10.6146 11.5169 10.5993 11.5239C9.71239 11.9273 8.66257 11.9273 7.77567 11.5239C7.76036 11.5169 7.74504 11.5092 7.73004 11.5019C7.6008 11.4406 7.47554 11.3705 7.35488 11.2921C6.43154 10.6906 5.81874 9.65093 5.81874 8.46942ZM16.1482 15.9183C15.454 13.8683 13.87 12.2115 11.8463 11.4244C12.6558 10.6952 13.1687 9.64235 13.1687 8.46942C13.1687 6.27422 11.3827 4.48818 9.18748 4.48818C6.99228 4.48818 5.20624 6.27422 5.20624 8.46942C5.20624 9.64235 5.71921 10.6952 6.52893 11.4244C4.50523 12.2118 2.92131 13.8683 2.22704 15.9183C1.21244 14.5099 0.612499 12.7839 0.612499 10.9194C0.612499 6.19123 4.4593 2.34443 9.18748 2.34443C13.9157 2.34443 17.7625 6.19123 17.7625 10.9194C17.7625 12.7839 17.1625 14.5099 16.1482 15.9183Z" fill="white"/>
<circle cx="16.8886" cy="5.62958" r="4.62958" fill="#0DC3CE" stroke="white" stroke-width="2"/>
</svg>
