<svg width="204" height="35" viewBox="0 0 204 35" fill="none" xmlns="http://www.w3.org/2000/svg">
<path d="M106 3.07229L105.641 2.72439L105.5 2.86979L105.5 3.07222L106 3.07229ZM106 4.64736L105.5 4.64728V4.64736H106ZM106 7.63135H105.5V7.74999L105.553 7.85598L106 7.63135ZM111.694 18.9556L112.126 19.2078L112.263 18.9735L112.141 18.731L111.694 18.9556ZM109.559 22.611L109.987 22.8701L109.991 22.8632L109.559 22.611ZM131.309 27.0273V27.5273H131.809V27.0273H131.309ZM131.309 24.0433H131.809V23.5433H131.309V24.0433ZM112.596 23.6703L112.113 23.5423L112.096 23.6052V23.6703H112.596ZM112.644 23.4913L112.212 23.2387L112.178 23.2974L112.16 23.3632L112.644 23.4913ZM114.067 21.0594V20.5594H113.78L113.636 20.8068L114.067 21.0594ZM128.62 19.5226L128.188 19.2702L128.187 19.2713L128.62 19.5226ZM134.282 9.83951L134.714 10.0919L134.716 10.0882L134.282 9.83951ZM134.25 8.36301L134.1 7.8862L133.482 8.0813L133.827 8.62965L134.25 8.36301ZM132.263 1L132.264 0.5H132.263V1ZM108.008 1V0.5H107.796L107.649 0.652102L108.008 1ZM112.663 27.2739C110.672 27.2739 109.015 28.8166 109.015 30.7579H110.015C110.015 29.4168 111.175 28.2739 112.663 28.2739V27.2739ZM109.015 30.7579C109.015 32.6992 110.672 34.2419 112.663 34.2419V33.2419C111.175 33.2419 110.015 32.099 110.015 30.7579H109.015ZM112.663 34.2419C114.651 34.2419 116.327 32.7024 116.327 30.7579H115.327C115.327 32.0958 114.155 33.2419 112.663 33.2419V34.2419ZM116.327 30.7579C116.327 28.8134 114.651 27.2739 112.663 27.2739V28.2739C114.155 28.2739 115.327 29.42 115.327 30.7579H116.327ZM105.5 3.07222L105.5 4.64728L106.5 4.64743L106.5 3.07237L105.5 3.07222ZM105.5 4.64736V7.63135H106.5V4.64736H105.5ZM105.553 7.85598L111.248 19.1803L112.141 18.731L106.447 7.40673L105.553 7.85598ZM111.263 18.7034L109.127 22.3588L109.991 22.8632L112.126 19.2078L111.263 18.7034ZM109.131 22.352C108.831 22.8478 108.664 23.4297 108.664 24.0433H109.664C109.664 23.6126 109.781 23.2098 109.987 22.8701L109.131 22.352ZM108.664 24.0433C108.664 25.9878 110.339 27.5273 112.327 27.5273V26.5273C110.835 26.5273 109.664 25.3813 109.664 24.0433H108.664ZM112.327 27.5273H131.309V26.5273H112.327V27.5273ZM131.809 27.0273V24.0433H130.809V27.0273H131.809ZM131.309 23.5433H112.992V24.5433H131.309V23.5433ZM112.992 23.5433C113.006 23.5433 113.03 23.5493 113.054 23.5715C113.078 23.5944 113.096 23.6309 113.096 23.6703H112.096C112.096 24.1825 112.522 24.5433 112.992 24.5433V23.5433ZM113.079 23.7984L113.127 23.6194L112.16 23.3632L112.113 23.5423L113.079 23.7984ZM113.075 23.7439L114.499 21.3119L113.636 20.8068L112.212 23.2387L113.075 23.7439ZM114.067 21.5594H125.851V20.5594H114.067V21.5594ZM125.851 21.5594C127.209 21.5594 128.421 20.8588 129.052 19.7739L128.187 19.2713C127.742 20.0365 126.867 20.5594 125.851 20.5594V21.5594ZM129.051 19.775L134.714 10.0919L133.851 9.5871L128.188 19.2702L129.051 19.775ZM134.716 10.0882C135.074 9.464 135.057 8.70508 134.673 8.09638L133.827 8.62965C134.014 8.92613 134.022 9.28864 133.849 9.59088L134.716 10.0882ZM134.401 8.83983C134.83 8.70447 135.131 8.42125 135.306 8.04954C135.472 7.69642 135.515 7.28638 135.496 6.88054C135.458 6.0704 135.163 5.11008 134.798 4.21796C134.428 3.31651 133.967 2.43996 133.559 1.78411C133.356 1.45737 133.16 1.17469 132.988 0.967857C132.904 0.865849 132.815 0.769249 132.726 0.693521C132.681 0.655719 132.626 0.613718 132.561 0.578972C132.502 0.54728 132.397 0.500292 132.264 0.500001L132.261 1.5C132.163 1.49978 132.099 1.46582 132.087 1.45933C132.069 1.44979 132.066 1.44518 132.079 1.45618C132.105 1.47807 132.151 1.52475 132.218 1.60558C132.35 1.76443 132.52 2.00564 132.71 2.31208C133.09 2.92258 133.525 3.74953 133.873 4.59722C134.224 5.45425 134.467 6.28872 134.497 6.92755C134.512 7.2462 134.471 7.47418 134.401 7.62369C134.339 7.75463 134.251 7.83864 134.1 7.8862L134.401 8.83983ZM132.263 0.5H120.75V1.5H132.263V0.5ZM120.75 0.5H108.008V1.5H120.75V0.5ZM107.649 0.652102L105.641 2.72439L106.359 3.42019L108.367 1.3479L107.649 0.652102ZM128.481 27.2739C126.489 27.2739 124.833 28.8166 124.833 30.7579H125.833C125.833 29.4168 126.993 28.2739 128.481 28.2739V27.2739ZM124.833 30.7579C124.833 32.6992 126.489 34.2419 128.481 34.2419V33.2419C126.993 33.2419 125.833 32.099 125.833 30.7579H124.833ZM128.481 34.2419C130.469 34.2419 132.145 32.7024 132.145 30.7579H131.145C131.145 32.0958 129.973 33.2419 128.481 33.2419V34.2419ZM132.145 30.7579C132.145 28.8134 130.469 27.2739 128.481 27.2739V28.2739C129.973 28.2739 131.145 29.42 131.145 30.7579H132.145Z" fill="#B60000"/>
<path d="M13.968 20.0645H20.124V24.5645C18.576 25.6805 16.56 26.3285 14.688 26.3285C10.08 26.3285 6.192 22.3685 6.192 17.6165C6.192 12.9005 10.08 8.94049 14.688 8.94049C17.1 8.94049 19.764 10.0205 21.312 11.8205L24.516 8.83249C22.14 6.34849 18.288 4.83649 14.688 4.83649C7.596 4.83649 1.62 10.6685 1.62 17.6165C1.62 24.5645 7.596 30.4325 14.688 30.4325C18.288 30.4325 22.14 28.8845 24.516 26.4005V16.3925H13.968V20.0645ZM41.3699 30.4325C48.3899 30.4325 54.3299 24.5645 54.3299 17.6165C54.3299 10.6685 48.3899 4.83649 41.3699 4.83649C34.3139 4.83649 28.3739 10.6685 28.3739 17.6165C28.3739 24.5645 34.3139 30.4325 41.3699 30.4325ZM41.3699 26.3285C36.7979 26.3285 32.9459 22.3685 32.9459 17.6165C32.9459 12.9005 36.7979 8.94049 41.3699 8.94049C45.9059 8.94049 49.7219 12.9005 49.7219 17.6165C49.7219 22.3685 45.9059 26.3285 41.3699 26.3285Z" fill="black"/>
<path d="M67.5984 30.3965C73.5024 30.3965 76.8864 27.2645 76.8864 22.8365C76.8864 18.3365 73.4304 16.6805 68.2824 15.5285C64.3584 14.6285 62.5224 13.9085 62.5224 11.8925C62.5224 10.1645 64.2144 8.65249 66.6984 8.65249C69.1464 8.65249 71.6304 9.69649 73.7904 11.5685L76.2384 8.25649C73.7544 6.13249 70.8024 4.80049 66.8784 4.80049C61.6584 4.80049 57.9864 7.96849 57.9864 12.2885C57.9864 16.9325 61.5504 18.4085 66.6624 19.5965C70.6224 20.5325 72.3864 21.2165 72.3864 23.2685C72.3864 25.0325 70.8024 26.5445 67.7424 26.5445C64.5024 26.5445 61.8744 25.2485 59.6064 23.1965L57.0144 26.4005C59.7504 28.9565 63.3504 30.3965 67.5984 30.3965ZM97.8376 5.26849V15.3485H85.4896V5.26849H80.9896V30.0005H85.4896V19.4525H97.8376V30.0005H102.338V5.26849H97.8376ZM138.048 30.0005H142.548V21.6845H148.812C154.104 21.6845 158.064 18.3005 158.064 13.4765C158.064 8.65249 154.104 5.26849 148.812 5.26849H138.048V30.0005ZM142.548 17.5445V9.40849H148.308C151.368 9.40849 153.492 10.9565 153.492 13.4765C153.492 15.9965 151.368 17.5445 148.308 17.5445H142.548ZM180.215 9.37249V5.26849H161.603V30.0005H180.215V25.8965H166.103V19.4525H178.883V15.3485H166.103V9.37249H180.215Z" fill="#6AAE27"/>
</svg>
