<svg width="23" height="21" viewBox="0 0 23 21" fill="none" xmlns="http://www.w3.org/2000/svg">
<path d="M9.66917 1.73193C4.60319 1.73193 0.481689 5.85344 0.481689 10.9194C0.481689 13.1382 1.27243 15.1757 2.58685 16.7651C2.59022 16.7697 2.59052 16.7755 2.5942 16.7798C3.54326 17.9243 4.73519 18.8017 6.06339 19.3685C6.0787 19.375 6.09371 19.382 6.10902 19.3884C6.21651 19.4338 6.32523 19.4757 6.43426 19.5167C6.47713 19.533 6.52001 19.5495 6.56349 19.5651C6.65751 19.5988 6.75214 19.6307 6.84739 19.6613C6.90833 19.6809 6.96927 19.7002 7.03083 19.7186C7.11505 19.7437 7.19957 19.7679 7.28471 19.7908C7.35944 19.8111 7.43477 19.8297 7.51011 19.8478C7.58637 19.8662 7.66293 19.8846 7.7398 19.9008C7.82555 19.9192 7.91222 19.9354 7.99919 19.9513C8.06902 19.9642 8.13853 19.9777 8.20897 19.989C8.30544 20.0046 8.40252 20.0169 8.49991 20.0294C8.56269 20.0374 8.62516 20.0466 8.68825 20.0533C8.7985 20.0649 8.90967 20.0732 9.02114 20.0809C9.0729 20.0845 9.12435 20.09 9.17641 20.0928C9.33903 20.102 9.50349 20.1069 9.66917 20.1069C9.83485 20.1069 9.9993 20.102 10.1625 20.0934C10.2146 20.0907 10.266 20.0851 10.3178 20.0815C10.4293 20.0735 10.5404 20.0655 10.6507 20.0539C10.7138 20.0472 10.7763 20.038 10.839 20.03C10.9364 20.0175 11.0335 20.0052 11.13 19.9896C11.2001 19.9783 11.2699 19.9648 11.3398 19.9519C11.4264 19.936 11.5131 19.9198 11.5991 19.9014C11.676 19.8849 11.7523 19.8668 11.8288 19.8484C11.9042 19.83 11.9795 19.8114 12.0542 19.7915C12.1394 19.7688 12.2239 19.7443 12.3081 19.7192C12.3697 19.7008 12.4306 19.6815 12.4916 19.6619C12.5868 19.6313 12.6814 19.5994 12.7755 19.5657C12.8186 19.5501 12.8615 19.5336 12.9047 19.5174C13.014 19.4763 13.1224 19.4341 13.2299 19.389C13.2452 19.3826 13.2602 19.3756 13.2756 19.3691C14.6035 18.8023 15.7957 17.9249 16.7448 16.7804C16.7484 16.7761 16.7487 16.77 16.7521 16.7657C18.0659 15.1757 18.8566 13.1382 18.8566 10.9194C18.8566 5.85344 14.7351 1.73193 9.66917 1.73193ZM13.3922 18.643C13.3876 18.6452 13.3834 18.6476 13.3788 18.6498C13.2694 18.7024 13.1583 18.752 13.0462 18.8004C13.0208 18.8111 12.9956 18.8222 12.9702 18.8329C12.8722 18.8739 12.773 18.9128 12.6732 18.9502C12.6315 18.9658 12.5899 18.9811 12.5479 18.9958C12.4594 19.0274 12.3706 19.0577 12.2809 19.0865C12.2251 19.1042 12.1691 19.1211 12.113 19.1376C12.0334 19.1615 11.9535 19.1845 11.8726 19.2059C11.8046 19.224 11.736 19.2405 11.6674 19.2567C11.5955 19.2739 11.5238 19.2913 11.4512 19.3067C11.3719 19.3235 11.292 19.3379 11.2124 19.3523C11.1477 19.3642 11.0834 19.3768 11.0182 19.3872C10.9285 19.4013 10.8378 19.4126 10.7475 19.424C10.6902 19.4313 10.6332 19.4399 10.5754 19.446C10.4722 19.457 10.368 19.4641 10.2642 19.4714C10.218 19.4745 10.172 19.4797 10.1252 19.4821C9.97358 19.4901 9.82168 19.4944 9.66917 19.4944C9.51666 19.4944 9.36476 19.4901 9.21347 19.4821C9.16692 19.4797 9.12098 19.4748 9.07443 19.4714C8.97031 19.4644 8.86649 19.457 8.76328 19.446C8.7054 19.4399 8.64844 19.4313 8.59117 19.424C8.50083 19.4126 8.41018 19.4013 8.32045 19.3872C8.25521 19.3768 8.1909 19.3642 8.12628 19.3523C8.04635 19.3379 7.96642 19.3232 7.88741 19.3067C7.81483 19.2913 7.74286 19.2739 7.6712 19.2567C7.6026 19.2402 7.534 19.224 7.46601 19.2059C7.38547 19.1845 7.30523 19.1612 7.2256 19.1376C7.16956 19.1211 7.11352 19.1042 7.05778 19.0865C6.96805 19.0577 6.87893 19.0274 6.79073 18.9958C6.74877 18.9808 6.70712 18.9655 6.66547 18.9502C6.56564 18.9128 6.46641 18.8739 6.36841 18.8329C6.34299 18.8225 6.31819 18.8115 6.29277 18.8007C6.18068 18.7527 6.06951 18.7027 5.95988 18.6501C5.95528 18.6479 5.95099 18.6458 5.9464 18.6433C4.8779 18.1264 3.93404 17.3926 3.16811 16.5014C3.76009 14.3215 5.43588 12.5643 7.59188 11.8651C7.63445 11.8911 7.67885 11.9144 7.72265 11.9389C7.74837 11.9533 7.77379 11.9686 7.79982 11.9824C7.89108 12.0308 7.98357 12.0761 8.0782 12.1168C8.15078 12.1487 8.22581 12.1756 8.30054 12.2032C8.31524 12.2084 8.32994 12.2142 8.34464 12.2194C8.75991 12.3664 9.20428 12.4507 9.66917 12.4507C10.1341 12.4507 10.5784 12.3664 10.9934 12.2194C11.0081 12.2142 11.0228 12.2084 11.0375 12.2032C11.1122 12.1756 11.1872 12.1487 11.2598 12.1168C11.3545 12.0761 11.4469 12.0308 11.5382 11.9824C11.5642 11.9683 11.5897 11.9533 11.6154 11.9389C11.6592 11.9144 11.7039 11.8911 11.7468 11.8648C13.9028 12.5643 15.5782 14.3215 16.1705 16.5011C15.4046 17.392 14.4607 18.1258 13.3922 18.643ZM6.30043 8.46942C6.30043 6.61202 7.81177 5.10068 9.66917 5.10068C11.5266 5.10068 13.0379 6.61202 13.0379 8.46942C13.0379 9.65093 12.4251 10.6906 11.5018 11.2921C11.3811 11.3705 11.2555 11.4406 11.1266 11.5019C11.1113 11.5092 11.0963 11.5169 11.081 11.5239C10.1941 11.9273 9.14426 11.9273 8.25736 11.5239C8.24205 11.5169 8.22673 11.5092 8.21173 11.5019C8.08249 11.4406 7.95723 11.3705 7.83657 11.2921C6.91323 10.6906 6.30043 9.65093 6.30043 8.46942ZM16.6299 15.9183C15.9356 13.8683 14.3517 12.2115 12.328 11.4244C13.1374 10.6952 13.6504 9.64235 13.6504 8.46942C13.6504 6.27422 11.8644 4.48818 9.66917 4.48818C7.47397 4.48818 5.68793 6.27422 5.68793 8.46942C5.68793 9.64235 6.20089 10.6952 7.01062 11.4244C4.98692 12.2118 3.403 13.8683 2.70873 15.9183C1.69413 14.5099 1.09419 12.7839 1.09419 10.9194C1.09419 6.19123 4.94098 2.34443 9.66917 2.34443C14.3973 2.34443 18.2441 6.19123 18.2441 10.9194C18.2441 12.7839 17.6442 14.5099 16.6299 15.9183Z" fill="black"/>
<circle cx="17.3703" cy="5.62958" r="4.62958" fill="#0DC3CE" stroke="white" stroke-width="2"/>
</svg>
